<?xml version="1.0" standalone="no"?><!DOCTYPE svg PUBLIC "-//W3C//DTD SVG 1.1//EN" "http://www.w3.org/Graphics/SVG/1.1/DTD/svg11.dtd"><svg t="1626917589395" class="icon" viewBox="0 0 1024 1024" version="1.1" xmlns="http://www.w3.org/2000/svg" p-id="1174" xmlns:xlink="http://www.w3.org/1999/xlink" width="200" height="200"><defs><style type="text/css">@font-face { font-family: feedback-iconfont; src: url("//at.alicdn.com/t/font_1031158_1uhr8ri0pk5.eot?#iefix") format("embedded-opentype"), url("//at.alicdn.com/t/font_1031158_1uhr8ri0pk5.woff2") format("woff2"), url("//at.alicdn.com/t/font_1031158_1uhr8ri0pk5.woff") format("woff"), url("//at.alicdn.com/t/font_1031158_1uhr8ri0pk5.ttf") format("truetype"), url("//at.alicdn.com/t/font_1031158_1uhr8ri0pk5.svg#iconfont") format("svg"); }
</style></defs><path d="M119.808 512.5376c0 168.0384 123.4432 309.5296 287.4112 334.0032l7.936 1.0752-8.0896 64.8704C209.408 887.7568 58.752 721.152 54.5536 521.1392l-0.0768-8.6016H119.808z m565.504 22.9376v50.1248h-199.424v99.2256h187.392v50.0992h-187.392v108.2368h207.9488v50.1248H427.2384V535.4752H685.312z m192.4352 91.7248c64.64 0 97.2032 35.072 97.2032 106.24v159.8464h-57.1136v-154.8544c0-42.5984-19.5584-63.6416-58.624-63.6416-14.0544 0-26.5728 5.0176-37.0944 15.0272-12.032 11.0336-19.0464 27.0592-21.0432 47.616v155.8528H743.936v-259.072h57.1392v30.0544c10.0096-12.032 21.5552-21.5552 34.0736-27.5712a93.2352 93.2352 0 0 1 42.5984-9.4976zM277.6064 87.1936v85.6832h177.92v244.5568h-52.6336v-27.5712h-125.2864v167.3728H223.488v-167.3728H98.7136v27.5712H46.1056V172.8768h177.408V87.1936h54.0928z m179.9168 22.272c219.904 0 398.6688 176.1024 402.9952 394.9568l0.0768 8.1152h-65.3568c0-183.8336-146.9184-333.3632-329.728-337.6128l-7.9872-0.0768V109.4912zM223.488 224H98.7136v114.7392H223.488V224z m179.4048 0h-125.2864v114.7392h125.2864V224z" p-id="1175" fill="#1296db"></path></svg>